<svg width="24" height="25" viewBox="0 0 24 25" fill="none" xmlns="http://www.w3.org/2000/svg">
<path d="M17.9998 8.79893C17.9698 8.79893 17.9498 8.79893 17.9198 8.79893H17.8698C15.9798 8.73893 14.5698 7.27893 14.5698 5.47893C14.5698 3.63893 16.0698 2.14893 17.8998 2.14893C19.7298 2.14893 21.2298 3.64893 21.2298 5.47893C21.2198 7.28893 19.8098 8.74893 18.0098 8.80893C18.0098 8.79893 18.0098 8.79893 17.9998 8.79893ZM17.8998 3.63893C16.8898 3.63893 16.0698 4.45893 16.0698 5.46893C16.0698 6.45893 16.8398 7.25893 17.8298 7.29893C17.8398 7.28893 17.9198 7.28893 18.0098 7.29893C18.9798 7.24893 19.7298 6.44893 19.7398 5.46893C19.7398 4.45893 18.9198 3.63893 17.8998 3.63893Z" fill="#292D32"/>
<path d="M18.01 16.1688C17.62 16.1688 17.23 16.1388 16.84 16.0688C16.43 15.9988 16.16 15.6088 16.23 15.1988C16.3 14.7888 16.69 14.5188 17.1 14.5888C18.33 14.7988 19.63 14.5688 20.5 13.9888C20.97 13.6788 21.22 13.2888 21.22 12.8988C21.22 12.5088 20.96 12.1288 20.5 11.8188C19.63 11.2388 18.31 11.0088 17.07 11.2288C16.66 11.3088 16.27 11.0288 16.2 10.6188C16.13 10.2088 16.4 9.81882 16.81 9.74882C18.44 9.45882 20.13 9.76881 21.33 10.5688C22.21 11.1588 22.72 11.9988 22.72 12.8988C22.72 13.7888 22.22 14.6388 21.33 15.2388C20.42 15.8388 19.24 16.1688 18.01 16.1688Z" fill="#292D32"/>
<path d="M5.96998 8.79892C5.95998 8.79892 5.94998 8.79892 5.94998 8.79892C4.14998 8.73892 2.73998 7.27891 2.72998 5.47891C2.72998 3.63891 4.22998 2.13892 6.05998 2.13892C7.88998 2.13892 9.38998 3.63892 9.38998 5.46892C9.38998 7.27892 7.97998 8.73892 6.17998 8.79892L5.96998 8.04892L6.03998 8.79892C6.01998 8.79892 5.98998 8.79892 5.96998 8.79892ZM6.06998 7.29892C6.12998 7.29892 6.17998 7.29891 6.23998 7.30891C7.12998 7.26891 7.90998 6.46891 7.90998 5.47891C7.90998 4.46891 7.08998 3.64891 6.07998 3.64891C5.06998 3.64891 4.24998 4.46891 4.24998 5.47891C4.24998 6.45891 5.00998 7.24891 5.97998 7.30891C5.98998 7.29891 6.02998 7.29892 6.06998 7.29892Z" fill="#292D32"/>
<path d="M5.96 16.1688C4.73 16.1688 3.55 15.8388 2.64 15.2388C1.76 14.6488 1.25 13.7988 1.25 12.8988C1.25 12.0088 1.76 11.1588 2.64 10.5688C3.84 9.76881 5.53 9.45882 7.16 9.74882C7.57 9.81882 7.84 10.2088 7.77 10.6188C7.7 11.0288 7.31 11.3088 6.9 11.2288C5.66 11.0088 4.35 11.2388 3.47 11.8188C3 12.1288 2.75 12.5088 2.75 12.8988C2.75 13.2888 3.01 13.6788 3.47 13.9888C4.34 14.5688 5.64 14.7988 6.87 14.5888C7.28 14.5188 7.67 14.7988 7.74 15.1988C7.81 15.6088 7.54 15.9988 7.13 16.0688C6.74 16.1388 6.35 16.1688 5.96 16.1688Z" fill="#292D32"/>
<path d="M11.9998 16.2689C11.9698 16.2689 11.9498 16.2689 11.9198 16.2689H11.8698C9.97982 16.2089 8.56982 14.7489 8.56982 12.9489C8.56982 11.1089 10.0698 9.6189 11.8998 9.6189C13.7298 9.6189 15.2298 11.1189 15.2298 12.9489C15.2198 14.7589 13.8098 16.2189 12.0098 16.2789C12.0098 16.2689 12.0098 16.2689 11.9998 16.2689ZM11.8998 11.1089C10.8898 11.1089 10.0698 11.9289 10.0698 12.9389C10.0698 13.9289 10.8398 14.7289 11.8298 14.7689C11.8398 14.7589 11.9198 14.7589 12.0098 14.7689C12.9798 14.7189 13.7298 13.9189 13.7398 12.9389C13.7398 11.9389 12.9198 11.1089 11.8998 11.1089Z" fill="#292D32"/>
<path d="M11.9998 23.6489C10.7998 23.6489 9.59978 23.3389 8.66978 22.7089C7.78978 22.1189 7.27979 21.2789 7.27979 20.3789C7.27979 19.4889 7.77978 18.6289 8.66978 18.0389C10.5398 16.7989 13.4698 16.7989 15.3298 18.0389C16.2098 18.6289 16.7198 19.4689 16.7198 20.3689C16.7198 21.2589 16.2198 22.1189 15.3298 22.7089C14.3998 23.3289 13.1998 23.6489 11.9998 23.6489ZM9.49979 19.2989C9.02979 19.6089 8.77979 19.9989 8.77979 20.3889C8.77979 20.7789 9.03979 21.1589 9.49979 21.4689C10.8498 22.3789 13.1398 22.3789 14.4898 21.4689C14.9598 21.1589 15.2098 20.7689 15.2098 20.3789C15.2098 19.9889 14.9498 19.6089 14.4898 19.2989C13.1498 18.3889 10.8598 18.3989 9.49979 19.2989Z" fill="#292D32"/>
</svg>
