<svg width="30" height="29" viewBox="0 0 30 29" fill="none" xmlns="http://www.w3.org/2000/svg">
<path d="M25.3624 20.2717H22.6825V17.5918C22.6825 17.1035 22.2775 16.6985 21.7892 16.6985C21.3009 16.6985 20.8959 17.1035 20.8959 17.5918V20.2717H18.216C17.7277 20.2717 17.3227 20.6767 17.3227 21.165C17.3227 21.6534 17.7277 22.0583 18.216 22.0583H20.8959V24.7382C20.8959 25.2266 21.3009 25.6315 21.7892 25.6315C22.2775 25.6315 22.6825 25.2266 22.6825 24.7382V22.0583H25.3624C25.8507 22.0583 26.2557 21.6534 26.2557 21.165C26.2557 20.6767 25.8507 20.2717 25.3624 20.2717Z" fill="#4771ED"/>
<path opacity="0.4" d="M27.149 10.4693V5.06181C27.149 3.3824 26.3867 2.70349 24.4929 2.70349H19.681C17.7872 2.70349 17.0249 3.3824 17.0249 5.06181V10.4573C17.0249 12.1487 17.7872 12.8157 19.681 12.8157H24.4929C26.3867 12.8276 27.149 12.1487 27.149 10.4693Z" fill="#4771ED"/>
<path d="M13.4517 10.4693V5.06181C13.4517 3.3824 12.6894 2.70349 10.7956 2.70349H5.98372C4.08992 2.70349 3.32764 3.3824 3.32764 5.06181V10.4573C3.32764 12.1487 4.08992 12.8157 5.98372 12.8157H10.7956C12.6894 12.8276 13.4517 12.1487 13.4517 10.4693Z" fill="#4771ED"/>
<path opacity="0.4" d="M13.4517 23.8688V19.0569C13.4517 17.1631 12.6894 16.4008 10.7956 16.4008H5.98372C4.08992 16.4008 3.32764 17.1631 3.32764 19.0569V23.8688C3.32764 25.7626 4.08992 26.5248 5.98372 26.5248H10.7956C12.6894 26.5248 13.4517 25.7626 13.4517 23.8688Z" fill="#4771ED"/>
</svg>
