<svg width="29" height="30" viewBox="0 0 29 30" fill="none" xmlns="http://www.w3.org/2000/svg">
<path opacity="0.4" d="M25.148 9.38515L14.3808 15.6144L3.61353 9.38515C4.08995 8.50376 4.78077 7.72956 5.55497 7.30078L11.9153 3.77522C13.2731 3.01294 15.4885 3.01294 16.8463 3.77522L23.2066 7.30078C23.9808 7.72956 24.6716 8.50376 25.148 9.38515Z" fill="#4771ED"/>
<path opacity="0.6" d="M14.3809 15.6144V27.0249C13.4876 27.0249 12.5943 26.8343 11.9153 26.4531L5.55504 22.9276C4.11385 22.1296 2.93469 20.1286 2.93469 18.4849V11.7435C2.93469 10.9812 3.19673 10.1474 3.6136 9.38515L14.3809 15.6144Z" fill="#4771ED"/>
<path d="M25.827 11.7435V18.4849C25.827 20.1286 24.6479 22.1296 23.2067 22.9276L16.8464 26.4531C16.1675 26.8343 15.2742 27.0249 14.3809 27.0249V15.6144L25.1481 9.38515C25.565 10.1474 25.827 10.9812 25.827 11.7435Z" fill="#4771ED"/>
</svg>
