<svg width="30" height="30" viewBox="0 0 30 30" fill="none" xmlns="http://www.w3.org/2000/svg">
<path opacity="0.4" d="M23.2059 8.26552H24.8258C24.5995 7.94393 24.3613 7.64617 24.1112 7.3484L23.2059 8.26552Z" fill="#4771ED"/>
<path opacity="0.4" d="M22.8605 6.08585C22.5627 5.83573 22.2649 5.59752 21.9434 5.37122V6.99107L22.8605 6.08585Z" fill="#4771ED"/>
<path opacity="0.4" d="M21.05 10.0521C20.9309 10.0521 20.8237 10.0283 20.7046 9.98067C20.4902 9.88539 20.3115 9.71863 20.2162 9.49233C20.1686 9.38513 20.1448 9.26602 20.1448 9.14692V4.38265C20.1448 4.37074 20.1567 4.35882 20.1567 4.335C18.6202 3.62036 16.9051 3.20349 15.0946 3.20349C8.51994 3.20349 3.18396 8.53948 3.18396 15.1142C3.18396 21.6889 8.51994 27.0248 15.0946 27.0248C21.6693 27.0248 27.0053 21.6889 27.0053 15.1142C27.0053 13.3037 26.5885 11.5886 25.8619 10.0402C25.85 10.0402 25.8381 10.0521 25.8143 10.0521H21.05Z" fill="#4771ED"/>
<path d="M24.123 7.34841L27.6367 3.83476C27.9821 3.48935 27.9821 2.91764 27.6367 2.57223C27.2913 2.22682 26.7195 2.22682 26.3741 2.57223L22.8605 6.08588C23.3131 6.47893 23.73 6.90772 24.123 7.34841Z" fill="#4771ED"/>
<path d="M21.9434 4.39455C21.9434 3.90621 21.5384 3.50125 21.0501 3.50125C20.5737 3.50125 20.1925 3.88239 20.1687 4.34691C20.7881 4.64468 21.3836 4.97818 21.9434 5.37123V4.39455Z" fill="#4771ED"/>
<path d="M26.7077 9.15882C26.7077 8.67048 26.3027 8.26552 25.8144 8.26552H24.8258C25.2189 8.82532 25.5643 9.42085 25.8501 10.0402C26.3265 10.0164 26.7077 9.63525 26.7077 9.15882Z" fill="#4771ED"/>
<path d="M17.1791 14.8998L15.988 14.4829V11.8387H16.0833C16.6907 11.8387 17.1791 12.3747 17.1791 13.0298C17.1791 13.5181 17.5841 13.9231 18.0724 13.9231C18.5607 13.9231 18.9657 13.5181 18.9657 13.0298C18.9657 11.3861 17.6793 10.0521 16.0833 10.0521H15.988V9.75435C15.988 9.26602 15.5831 8.86105 15.0947 8.86105C14.6064 8.86105 14.2014 9.26602 14.2014 9.75435V10.0521H13.8441C12.4029 10.0521 11.2238 11.267 11.2238 12.7678C11.2238 14.5067 12.2362 15.0665 13.0104 15.3405L14.2014 15.7573V18.4015H14.1062C13.4987 18.4015 13.0104 17.8655 13.0104 17.2104C13.0104 16.7221 12.6054 16.3171 12.1171 16.3171C11.6287 16.3171 11.2238 16.7221 11.2238 17.2104C11.2238 18.8541 12.5101 20.1881 14.1062 20.1881H14.2014V20.4859C14.2014 20.9742 14.6064 21.3792 15.0947 21.3792C15.5831 21.3792 15.988 20.9742 15.988 20.4859V20.1881H16.3453C17.7865 20.1881 18.9657 18.9732 18.9657 17.4725C18.9657 15.7216 17.9533 15.1618 17.1791 14.8998ZM13.594 13.6372C13.189 13.4943 13.0104 13.4109 13.0104 12.7558C13.0104 12.2437 13.3915 11.8268 13.8441 11.8268H14.2014V13.8397L13.594 13.6372ZM16.3453 18.3896H15.988V16.3767L16.5955 16.5911C17.0004 16.734 17.1791 16.8174 17.1791 17.4725C17.1791 17.9727 16.7979 18.3896 16.3453 18.3896Z" fill="#4771ED"/>
</svg>
