<svg width="33" height="33" viewBox="0 0 33 33" fill="none" xmlns="http://www.w3.org/2000/svg">
<path d="M7.28753 13.8186H9.98882C12.6901 13.8186 14.0407 12.4679 14.0407 9.76665V7.06536C14.0407 4.36407 12.6901 3.01343 9.98882 3.01343H7.28753C4.58624 3.01343 3.2356 4.36407 3.2356 7.06536V9.76665C3.2356 12.4679 4.58624 13.8186 7.28753 13.8186Z" stroke="white" stroke-width="2.94686" stroke-miterlimit="10" stroke-linecap="round" stroke-linejoin="round"/>
<path d="M23.4953 13.8186H26.1966C28.8979 13.8186 30.2485 12.4679 30.2485 9.76665V7.06536C30.2485 4.36407 28.8979 3.01343 26.1966 3.01343H23.4953C20.794 3.01343 19.4434 4.36407 19.4434 7.06536V9.76665C19.4434 12.4679 20.794 13.8186 23.4953 13.8186Z" stroke="white" stroke-width="2.94686" stroke-miterlimit="10" stroke-linecap="round" stroke-linejoin="round"/>
<path d="M23.4953 30.0263H26.1966C28.8979 30.0263 30.2485 28.6757 30.2485 25.9744V23.2731C30.2485 20.5718 28.8979 19.2212 26.1966 19.2212H23.4953C20.794 19.2212 19.4434 20.5718 19.4434 23.2731V25.9744C19.4434 28.6757 20.794 30.0263 23.4953 30.0263Z" stroke="white" stroke-width="2.94686" stroke-miterlimit="10" stroke-linecap="round" stroke-linejoin="round"/>
<path d="M7.28753 30.0263H9.98882C12.6901 30.0263 14.0407 28.6757 14.0407 25.9744V23.2731C14.0407 20.5718 12.6901 19.2212 9.98882 19.2212H7.28753C4.58624 19.2212 3.2356 20.5718 3.2356 23.2731V25.9744C3.2356 28.6757 4.58624 30.0263 7.28753 30.0263Z" stroke="white" stroke-width="2.94686" stroke-miterlimit="10" stroke-linecap="round" stroke-linejoin="round"/>
</svg>
