<svg width="24" height="25" viewBox="0 0 24 25" fill="none" xmlns="http://www.w3.org/2000/svg">
<path d="M8 12.8496H15" stroke="#292D32" stroke-width="1.5" stroke-miterlimit="10" stroke-linecap="round" stroke-linejoin="round"/>
<path d="M8 16.8496H12.38" stroke="#292D32" stroke-width="1.5" stroke-miterlimit="10" stroke-linecap="round" stroke-linejoin="round"/>
<path d="M10 6.64966H14C16 6.64966 16 5.64966 16 4.64966C16 2.64966 15 2.64966 14 2.64966H10C9 2.64966 8 2.64966 8 4.64966C8 6.64966 9 6.64966 10 6.64966Z" stroke="#292D32" stroke-width="1.5" stroke-miterlimit="10" stroke-linecap="round" stroke-linejoin="round"/>
<path d="M16 4.66968C19.33 4.84968 21 6.07968 21 10.6497V16.6497C21 20.6497 20 22.6497 15 22.6497H9C4 22.6497 3 20.6497 3 16.6497V10.6497C3 6.08968 4.67 4.84968 8 4.66968" stroke="#292D32" stroke-width="1.5" stroke-miterlimit="10" stroke-linecap="round" stroke-linejoin="round"/>
</svg>
