<svg width="30" height="30" viewBox="0 0 30 30" fill="none" xmlns="http://www.w3.org/2000/svg">
<path d="M25.8266 27.0249H3.7918C3.30346 27.0249 2.8985 26.6199 2.8985 26.1316C2.8985 25.6432 3.30346 25.2383 3.7918 25.2383H25.8266C26.3149 25.2383 26.7199 25.6432 26.7199 26.1316C26.7199 26.6199 26.3149 27.0249 25.8266 27.0249Z" fill="#4771ED"/>
<path opacity="0.4" d="M25.0405 17.139L16.4291 25.7504C14.7377 27.4417 12.0102 27.4417 10.3308 25.7623L4.83997 20.2715L19.5616 5.5499L25.0524 11.0407C26.7318 12.7201 26.7318 15.4477 25.0405 17.139Z" fill="#4771ED"/>
<path d="M19.5615 5.5499L4.82796 20.2715L3.74409 19.1876C2.06469 17.5082 2.06469 14.7807 3.756 13.0894L12.3674 4.47794C14.0587 2.78663 16.7863 2.78663 18.4657 4.46603L19.5615 5.5499Z" fill="#4771ED"/>
<path d="M15.8692 21.7842L14.2612 23.3921C13.9277 23.7256 13.3917 23.7256 13.0582 23.3921C12.7247 23.0586 12.7247 22.5226 13.0582 22.1891L14.6662 20.5812C14.9997 20.2477 15.5357 20.2477 15.8692 20.5812C16.2026 20.9147 16.2026 21.4507 15.8692 21.7842Z" fill="#4771ED"/>
<path d="M21.086 16.5673L17.8821 19.7712C17.5486 20.1047 17.0126 20.1047 16.6791 19.7712C16.3456 19.4377 16.3456 18.9018 16.6791 18.5683L19.8831 15.3643C20.2166 15.0308 20.7525 15.0308 21.086 15.3643C21.4076 15.6978 21.4076 16.2338 21.086 16.5673Z" fill="#4771ED"/>
</svg>
