<svg width="24" height="25" viewBox="0 0 24 25" fill="none" xmlns="http://www.w3.org/2000/svg">
<path d="M22 6.396V8.81599C22 10.396 21 11.396 19.42 11.396H16V4.40599C16 3.29599 16.91 2.396 18.02 2.396C19.11 2.406 20.11 2.84599 20.83 3.56599C21.55 4.29599 22 5.296 22 6.396Z" stroke="#292D32" stroke-width="1.5" stroke-miterlimit="10" stroke-linecap="round" stroke-linejoin="round"/>
<path d="M2 7.396V21.396C2 22.226 2.94 22.696 3.6 22.196L5.31 20.916C5.71 20.616 6.27 20.656 6.63 21.016L8.29 22.686C8.68 23.076 9.32 23.076 9.71 22.686L11.39 21.006C11.74 20.656 12.3 20.616 12.69 20.916L14.4 22.196C15.06 22.686 16 22.216 16 21.396V4.396C16 3.296 16.9 2.396 18 2.396H7H6C3 2.396 2 4.186 2 6.396V7.396Z" stroke="#292D32" stroke-width="1.5" stroke-miterlimit="10" stroke-linecap="round" stroke-linejoin="round"/>
<path d="M9 13.406H12" stroke="#292D32" stroke-width="1.5" stroke-linecap="round" stroke-linejoin="round"/>
<path d="M9 9.40601H12" stroke="#292D32" stroke-width="1.5" stroke-linecap="round" stroke-linejoin="round"/>
<path d="M5.99561 13.396H6.00459" stroke="#292D32" stroke-width="2" stroke-linecap="round" stroke-linejoin="round"/>
<path d="M5.99561 9.396H6.00459" stroke="#292D32" stroke-width="2" stroke-linecap="round" stroke-linejoin="round"/>
</svg>
