<svg width="29" height="30" viewBox="0 0 29 30" fill="none" xmlns="http://www.w3.org/2000/svg">
<path opacity="0.4" d="M10.9505 3.20349C7.82994 3.20349 5.29297 5.74047 5.29297 8.86106C5.29297 11.9221 7.68702 14.3995 10.8076 14.5067C10.9029 14.4948 10.9982 14.4948 11.0696 14.5067C11.0935 14.5067 11.1054 14.5067 11.1292 14.5067C11.1411 14.5067 11.1411 14.5067 11.153 14.5067C14.2022 14.3995 16.5962 11.9221 16.6081 8.86106C16.6081 5.74047 14.0711 3.20349 10.9505 3.20349Z" fill="#4771ED"/>
<path d="M17.0012 17.675C13.6782 15.4596 8.2588 15.4596 4.91189 17.675C3.39924 18.6874 2.56549 20.0571 2.56549 21.5221C2.56549 22.9871 3.39924 24.3449 4.89998 25.3454C6.56748 26.465 8.75904 27.0249 10.9506 27.0249C13.1422 27.0249 15.3337 26.465 17.0012 25.3454C18.502 24.333 19.3357 22.9752 19.3357 21.4983C19.3238 20.0333 18.502 18.6755 17.0012 17.675Z" fill="#4771ED"/>
<path opacity="0.4" d="M24.0404 9.56378C24.231 11.8744 22.5873 13.8993 20.3124 14.1732C20.3005 14.1732 20.3005 14.1732 20.2885 14.1732H20.2528C20.1813 14.1732 20.1099 14.1732 20.0503 14.197C18.895 14.2566 17.8349 13.8874 17.0369 13.2084C18.2637 12.1127 18.9665 10.469 18.8235 8.68239C18.7402 7.71762 18.4067 6.83623 17.9064 6.08586C18.359 5.85956 18.8831 5.71663 19.4191 5.66899C21.7536 5.4665 23.8379 7.20546 24.0404 9.56378Z" fill="#4771ED"/>
<path d="M26.4225 20.5812C26.3272 21.7365 25.5888 22.737 24.3501 23.4159C23.159 24.071 21.6583 24.3807 20.1694 24.3449C21.027 23.5707 21.5272 22.606 21.6225 21.5817C21.7416 20.1047 21.0389 18.6874 19.6334 17.5559C18.8354 16.9246 17.9064 16.4243 16.894 16.0551C19.5262 15.2928 22.8374 15.805 24.8741 17.4487C25.9699 18.33 26.5297 19.4377 26.4225 20.5812Z" fill="#4771ED"/>
</svg>
